<?xml version="1.0" encoding="utf-8"?>
<!-- Generator: Adobe Illustrator 16.0.0, SVG Export Plug-In . SVG Version: 6.00 Build 0)  -->
<!DOCTYPE svg PUBLIC "-//W3C//DTD SVG 1.1//EN" "http://www.w3.org/Graphics/SVG/1.1/DTD/svg11.dtd">
<svg version="1.1" id="Layer_1" xmlns="http://www.w3.org/2000/svg" xmlns:xlink="http://www.w3.org/1999/xlink" x="0px" y="0px"
	 width="234.998px" height="198.667px" viewBox="0 0 234.998 198.667" enable-background="new 0 0 234.998 198.667"
	 xml:space="preserve">
<g>
	<path fill="#AECB51" d="M166.992,24.837c-25.113,6.59-33.84,28.214-32.379,37.247c0.461-0.275,0.906-0.546,1.371-0.836
		c2.202-1.352,4.604-2.632,7.102-3.954c2.477-1.331,5.139-2.562,7.83-3.813c1.352-0.631,2.767-1.187,4.163-1.756l2.121-0.861
		c0.911-0.355,1.467-0.506,2.222-0.766l4.233-1.411c1.472-0.42,2.922-0.831,4.373-1.241c2.927-0.806,5.755-1.522,8.507-2.087
		c5.494-1.251,10.668-2.162,15.121-2.853c8.896-1.356,14.971-1.611,14.971-1.611s-1.391,0.595-3.818,1.632
		c-2.437,1.016-5.924,2.362-10.122,3.973c-2.101,0.771-4.373,1.606-6.774,2.487c-2.412,0.856-4.944,1.752-7.576,2.678
		c-2.592,0.916-5.264,1.871-7.985,2.848c-2.672,0.9-5.444,1.966-8.236,3.037c-2.607,0.971-5.313,2.267-7.961,3.318
		c-2.637,1.201-7.15,2.768-9.692,3.858c-3.082,1.291-5.028,1.992-6.984,3.028c-21.904,12.781-31.609,35.41-37.528,59.355
		c-1.051-22.494-5.77-44.317-22.006-60.411c0.015-0.01,0.035-0.016,0.053-0.031c-2.199-2.057-4.483-4.273-6.835-6.646
		c-1.932-1.992-3.973-3.968-5.959-6.081c-2.04-1.986-4.043-4.213-6.087-6.11c-2.179-2.056-4.331-4.099-6.458-5.96
		c-2.146-1.926-4.246-3.828-6.292-5.669c-2.074-1.862-4.078-3.653-5.974-5.365c-1.879-1.731-3.673-3.373-5.312-4.89
		c-3.265-3.083-5.979-5.665-7.841-7.536c-1.844-1.887-2.895-2.968-2.895-2.968S29.847,18,37.562,22.65
		c3.848,2.337,8.273,5.149,12.887,8.407c2.324,1.582,4.666,3.318,7.06,5.179c1.178,0.936,2.376,1.872,3.565,2.812l3.377,2.923
		c0.593,0.53,1.056,0.876,1.757,1.557l1.631,1.606c1.085,1.066,2.176,2.122,3.18,3.212c2.024,2.177,4.003,4.339,5.792,6.511
		c1.796,2.172,3.525,4.273,5.046,6.365c0.322,0.451,0.625,0.861,0.948,1.296c4.801-7.792,4.988-31.112-15.709-46.795
		C44.56-1.341,13.152,6.316,0,0c13.28,20.318,10.728,33.884,33.039,56.179c14.909,14.918,28.832,15.844,38.213,13.246
		c19.074,18.366,22.051,46.37,22.062,73.158c-1.952-1.576-4.323-2.817-7.06-2.817c-7.721,0-13.342,4.339-16.037,10.534
		c-16.995-5.785-28.283,7.661-29.262,18.986c-8.086-3.008-18.343,6.301-18.343,14.377c0,7.987,6.307,14.443,14.208,14.778
		l125.095,0.226c0,0,13.335-7.191,13.335-15.009c0-8.192-6.64-14.837-14.836-14.837c-1.131,0-2.217,0.15-3.268,0.39
		c0.065-0.58-1.437-25.772-23.317-15.653c-1.701-7.877-3.928-13.792-17.083-13.792c-6.477,0-10.863,2.353-13.67,4.739
		c5.477-27.859,13.94-56.974,38.604-71.372c0.275-0.155,0.41-0.36,0.609-0.545c7.621,6.12,20.955,10.845,40.73,2.632
		c29.132-12.1,31.943-25.606,51.979-39.313C220.438,36.722,194.338,17.66,166.992,24.837z M98.817,149.194l0.818-0.821
		c-0.413,0.641-0.666,1.106-0.666,1.106S98.888,149.324,98.817,149.194z"/>
</g>
<g>
</g>
<g>
</g>
<g>
</g>
<g>
</g>
<g>
</g>
<g>
</g>
</svg>
