<?xml version="1.0"?><svg width="640" height="480" xmlns="http://www.w3.org/2000/svg">
 <title>wave pattern</title>
 <metadata id="metadata18081">image/svg+xmlPublic Domainclker.comMohamed Ibrahimmap symbolsmap symbols</metadata>
 <g>
  <title>Layer 1</title>
  <path d="m340.196991,130.641006c-9.957977,15.216995 -23.391998,21.182999 -38.290985,21.182999c-18.914001,0 -36.130005,-12.174011 -46.012009,-35.183006c-9.804001,23.495995 -27.097,35.183006 -46.242996,35.183006c-18.912994,0 -35.973999,-12.417007 -45.856003,-35.427002c-9.804001,23.73999 -27.097,35.427002 -46.473999,35.427002c-13.973,0 -26.788498,-4.992004 -36.438896,-18.505005l-7.334,-82.7813c10.036499,20.938801 25.9394,34.451298 43.772896,34.451298c19.376999,0 36.669998,-14.973099 46.473999,-38.711597c9.882004,23.008099 26.943008,38.711597 45.856003,38.711597c19.145996,0 36.438995,-14.973099 46.242996,-38.468098c9.882004,23.008099 27.098007,38.468098 46.012009,38.468098c19.299988,0 36.360992,-15.703499 46.087982,-39.441898l-7.796997,85.093906z" id="path6712" fill-rule="nonzero" fill="#2948cc"/>
  <ellipse ry="11" id="svg_3" cy="244" cx="257" fill="#0000ff"/>
  <ellipse ry="5" id="svg_4" cy="245" cx="258" fill="#0000ff"/>
  <path id="svg_1" d="m524.426025,129.956024c-9.958496,15.216614 -23.39209,21.182281 -38.291504,21.182281c-18.914154,0 -36.129272,-12.173523 -46.011353,-35.182922c-9.804016,23.496338 -27.097137,35.182922 -46.242889,35.182922c-18.9133,0 -35.974854,-12.417023 -45.856079,-35.426422c-9.80484,23.739838 -27.097168,35.426422 -46.474426,35.426422c-13.973175,0 -26.788452,-4.991882 -36.438873,-18.504395l-7.333954,-82.78157c10.036469,20.938797 25.939301,34.451294 43.772827,34.451294c19.377258,0 36.669586,-14.973145 46.474426,-38.711578c9.881226,23.008072 26.94278,38.711578 45.856079,38.711578c19.145752,0 36.438873,-14.973145 46.242889,-38.468155c9.88208,23.008118 27.097198,38.468155 46.011353,38.468155c19.30011,0 36.361694,-15.703506 46.088501,-39.441925l-7.796997,85.094315z" fill-rule="nonzero" fill="#2948cc"/>
  <path id="svg_2" d="m339.954407,195.459442c-9.922119,15.932526 -23.306824,22.178833 -38.151947,22.178833c-18.845215,0 -35.99765,-12.746246 -45.843689,-36.838165c-9.76828,24.601776 -26.998413,36.838165 -46.074402,36.838165c-18.844391,0 -35.843781,-13.00116 -45.688995,-37.093079c-9.769135,24.856689 -26.998428,37.093079 -46.305099,37.093079c-13.922241,0 -26.690811,-5.226746 -36.306107,-19.374969l-7.307205,-86.676178c9.999847,21.92392 25.844772,36.072144 43.613312,36.072144c19.306671,0 36.535965,-15.677612 46.305099,-40.532837c9.845215,24.090515 26.844604,40.532837 45.688995,40.532837c19.075989,0 36.306122,-15.677612 46.074402,-40.277985c9.846039,24.090607 26.998474,40.277985 45.843689,40.277985c19.229767,0 36.229187,-16.442322 45.920593,-41.297546l-7.768646,89.097717z" fill-rule="nonzero" fill="#0f87ce"/>
  <path id="svg_5" d="m523.954407,194.459442c-9.922119,15.932526 -23.306824,22.178833 -38.151947,22.178833c-18.845215,0 -35.99765,-12.746246 -45.843689,-36.838165c-9.76828,24.601776 -26.998413,36.838165 -46.074402,36.838165c-18.844391,0 -35.843781,-13.00116 -45.688995,-37.093079c-9.769135,24.856689 -26.998413,37.093079 -46.305115,37.093079c-13.922211,0 -26.690796,-5.226746 -36.306091,-19.374969l-7.30719,-86.676178c9.999847,21.92392 25.844727,36.072144 43.613281,36.072144c19.306702,0 36.53598,-15.677612 46.305115,-40.532837c9.845215,24.090515 26.844604,40.532837 45.688995,40.532837c19.075989,0 36.306122,-15.677612 46.074402,-40.277985c9.846039,24.090607 26.998474,40.277985 45.843689,40.277985c19.229767,0 36.229156,-16.442322 45.920563,-41.297546l-7.768616,89.097717z" fill-rule="nonzero" fill="#0f87ce"/>
  <path id="svg_9" d="m340.425995,259.361511c-9.958405,16.362061 -23.39209,22.776794 -38.291504,22.776794c-18.914124,0 -36.129272,-13.089874 -46.011322,-37.831329c-9.803986,25.265015 -27.097137,37.831329 -46.242889,37.831329c-18.9133,0 -35.974854,-13.351715 -45.856079,-38.093109c-9.804871,25.526794 -27.097168,38.093109 -46.474426,38.093109c-13.97316,0 -26.788452,-5.367706 -36.438889,-19.897339l-7.333939,-89.012955c10.036453,22.514999 25.939316,37.044632 43.772827,37.044632c19.377258,0 36.669556,-16.10025 46.474426,-41.625595c9.881226,24.740005 26.94278,41.625595 45.856079,41.625595c19.145752,0 36.438904,-16.10025 46.242889,-41.363876c9.88205,24.740067 27.097198,41.363876 46.011322,41.363876c19.30014,0 36.361694,-16.88559 46.088562,-42.410934l-7.797058,91.499802z" fill-rule="nonzero" fill="#00bbd1"/>
  <path id="svg_12" d="m523.426025,258.361511c-9.958435,16.362061 -23.39212,22.776794 -38.291534,22.776794c-18.914124,0 -36.129272,-13.089874 -46.011322,-37.831329c-9.803986,25.265015 -27.097137,37.831329 -46.242889,37.831329c-18.9133,0 -35.974854,-13.351715 -45.856079,-38.093109c-9.804871,25.526794 -27.097168,38.093109 -46.474426,38.093109c-13.973175,0 -26.788452,-5.367706 -36.438873,-19.897339l-7.333954,-89.012955c10.036469,22.514999 25.939301,37.044632 43.772827,37.044632c19.377258,0 36.669556,-16.10025 46.474426,-41.625595c9.881226,24.740005 26.94278,41.625595 45.856079,41.625595c19.145752,0 36.438904,-16.10025 46.242889,-41.363876c9.88205,24.740067 27.097198,41.363876 46.011322,41.363876c19.30014,0 36.361725,-16.88559 46.088531,-42.410934l-7.796997,91.499802z" fill-rule="nonzero" fill="#00bbd1"/>
 </g>
</svg>